<?xml version="1.0" encoding="utf-8"?>
<!-- Generator: Adobe Illustrator 16.0.0, SVG Export Plug-In . SVG Version: 6.00 Build 0)  -->
<!DOCTYPE svg PUBLIC "-//W3C//DTD SVG 1.1//EN" "http://www.w3.org/Graphics/SVG/1.1/DTD/svg11.dtd">
<svg version="1.1" id="Layer_1" xmlns="http://www.w3.org/2000/svg" xmlns:xlink="http://www.w3.org/1999/xlink" x="0px" y="0px"
	 width="80.908px" height="37.668px" viewBox="0 0 80.908 37.668" enable-background="new 0 0 80.908 37.668" xml:space="preserve">
<path fill="none" stroke="#FFFFFF" stroke-miterlimit="10" d="M50.746,32c0,2.854,2.313,5.168,5.167,5.168h3.417
	c2.854,0,5.167-2.313,5.167-5.168l0,0c0-2.854-2.313-5.166-5.167-5.166h-3.417C53.059,26.834,50.746,29.146,50.746,32L50.746,32z"/>
<path fill="none" stroke="#FFFFFF" stroke-miterlimit="10" d="M66.657,32c0,2.854,2.313,5.168,5.167,5.168h3.417
	c2.854,0,5.167-2.313,5.167-5.168l0,0c0-2.854-2.313-5.166-5.167-5.166h-3.417C68.971,26.834,66.657,29.146,66.657,32L66.657,32z"/>
<path fill="none" stroke="#FFFFFF" stroke-miterlimit="10" d="M0.5,32c0,2.854,2.313,5.168,5.167,5.168h37.087
	c2.854,0,5.167-2.313,5.167-5.168l0,0c0-2.854-2.313-5.166-5.167-5.166H5.667C2.813,26.834,0.5,29.146,0.5,32L0.5,32z"/>
<path fill="none" stroke="#FFFFFF" stroke-miterlimit="10" d="M0.5,5.667c0,2.854,2.313,5.167,5.167,5.167h3.417
	c2.854,0,5.167-2.313,5.167-5.167l0,0c0-2.854-2.313-5.167-5.167-5.167H5.667C2.813,0.501,0.5,2.814,0.5,5.667L0.5,5.667z"/>
<path fill="none" stroke="#FFFFFF" stroke-miterlimit="10" d="M66.657,5.667c0,2.854,2.313,5.167,5.167,5.167h3.417
	c2.854,0,5.167-2.313,5.167-5.167l0,0c0-2.854-2.313-5.167-5.167-5.167h-3.417C68.971,0.501,66.657,2.814,66.657,5.667L66.657,5.667
	z"/>
<path fill="none" stroke="#FFFFFF" stroke-miterlimit="10" d="M50.746,19.167c0,2.854,2.313,5.167,5.167,5.167h3.417
	c2.854,0,5.167-2.313,5.167-5.167l0,0c0-2.854-2.313-5.167-5.167-5.167h-3.417C53.059,14.001,50.746,16.314,50.746,19.167
	L50.746,19.167z"/>
<path fill="none" stroke="#FFFFFF" stroke-miterlimit="10" d="M66.657,19.167c0,2.854,2.313,5.167,5.167,5.167h3.417
	c2.854,0,5.167-2.313,5.167-5.167l0,0c0-2.854-2.313-5.167-5.167-5.167h-3.417C68.971,14.001,66.657,16.314,66.657,19.167
	L66.657,19.167z"/>
<path fill="none" stroke="#FFFFFF" stroke-miterlimit="10" d="M16.71,5.667c0,2.854,2.313,5.167,5.167,5.167h36.571
	c2.854,0,5.167-2.313,5.167-5.167l0,0c0-2.854-2.313-5.167-5.167-5.167H21.876C19.023,0.501,16.71,2.814,16.71,5.667L16.71,5.667z"
	/>
<path fill="none" stroke="#FFFFFF" stroke-miterlimit="10" d="M0.5,19.167c0,2.854,2.313,5.167,5.167,5.167h3.417
	c2.854,0,5.167-2.313,5.167-5.167l0,0c0-2.854-2.313-5.167-5.167-5.167H5.667C2.813,14.001,0.5,16.314,0.5,19.167L0.5,19.167z"/>
<path fill="none" stroke="#FFFFFF" stroke-miterlimit="10" d="M16.71,19.167c0,2.854,2.313,5.167,5.167,5.167h20.877
	c2.854,0,5.167-2.313,5.167-5.167l0,0c0-2.854-2.313-5.167-5.167-5.167H21.876C19.023,14.001,16.71,16.314,16.71,19.167
	L16.71,19.167z"/>
</svg>
